<svg xmlns="http://www.w3.org/2000/svg" width="100" height="100" viewBox="0 0 1010 1010" version="1.1"><path d="M 397.156 290.487 C 393.922 292.268, 387 299.148, 387 300.581 C 387 301.227, 386.351 302.294, 385.557 302.952 C 383.693 304.499, 375 321.994, 375 324.199 C 375 325.124, 374.550 326.160, 374 326.500 C 373.450 326.840, 373 328.190, 373 329.500 C 373 330.810, 372.550 332.160, 372 332.500 C 371.450 332.840, 371 334.190, 371 335.500 C 371 336.810, 370.550 338.160, 370 338.500 C 369.450 338.840, 369 340.190, 369 341.500 C 369 342.810, 368.550 344.160, 368 344.500 C 367.450 344.840, 367 346.640, 367 348.500 C 367 350.360, 366.550 352.160, 366 352.500 C 365.450 352.840, 365 354.640, 365 356.500 C 365 358.360, 364.550 360.160, 364 360.500 C 363.450 360.840, 363 363.090, 363 365.500 C 363 367.910, 362.550 370.160, 362 370.500 C 361.450 370.840, 361 373.090, 361 375.500 C 361 377.910, 360.550 380.160, 360 380.500 C 359.450 380.840, 359 383.540, 359 386.500 C 359 389.460, 358.550 392.160, 358 392.500 C 357.450 392.840, 357 395.540, 357 398.500 C 357 401.460, 356.550 404.160, 356 404.500 C 355.450 404.840, 355 407.990, 355 411.500 C 355 415.010, 354.550 418.160, 354 418.500 C 353.450 418.840, 353 422.440, 353 426.500 C 353 430.560, 352.550 434.160, 352 434.500 C 351.448 434.841, 351 439.324, 351 444.500 C 351 449.676, 350.552 454.159, 350 454.500 C 349.414 454.862, 349 460.657, 349 468.500 C 349 476.343, 348.586 482.138, 348 482.500 C 347.377 482.885, 347 492.491, 347 508 C 347 523.509, 347.377 533.115, 348 533.500 C 348.550 533.840, 349 535.640, 349 537.500 C 349 539.360, 349.450 541.160, 350 541.500 C 350.550 541.840, 351 542.876, 351 543.801 C 351 546.006, 359.693 563.501, 361.557 565.048 C 362.351 565.706, 363 566.773, 363 567.419 C 363 568.066, 364.800 570.352, 367 572.500 C 369.200 574.648, 371 576.860, 371 577.415 C 371 578.787, 379.145 587, 380.505 587 C 381.104 587, 383.352 588.800, 385.500 591 C 387.648 593.200, 389.920 595, 390.548 595 C 391.176 595, 392.505 595.900, 393.500 597 C 394.495 598.100, 395.860 599, 396.533 599 C 397.205 599, 398.307 599.665, 398.981 600.477 C 399.655 601.289, 402.748 603.170, 405.853 604.657 C 408.959 606.143, 411.659 607.476, 411.854 607.618 C 412.049 607.759, 411.487 609.323, 410.604 611.091 C 409.722 612.860, 409 614.899, 409 615.623 C 409 616.347, 408.100 618.542, 407 620.500 C 405.900 622.458, 405 624.921, 405 625.971 C 405 627.022, 404.550 628.160, 404 628.500 C 403.450 628.840, 403 630.190, 403 631.500 C 403 632.810, 402.550 634.160, 402 634.500 C 401.450 634.840, 401 636.190, 401 637.500 C 401 638.810, 400.550 640.160, 400 640.500 C 399.450 640.840, 399 642.640, 399 644.500 C 399 646.360, 398.550 648.160, 398 648.500 C 397.450 648.840, 397 650.640, 397 652.500 C 397 654.360, 396.550 656.160, 396 656.500 C 395.450 656.840, 395 658.640, 395 660.500 C 395 662.360, 394.550 664.160, 394 664.500 C 393.450 664.840, 393 667.090, 393 669.500 C 393 671.910, 392.550 674.160, 392 674.500 C 391.450 674.840, 391 677.090, 391 679.500 C 391 681.910, 390.550 684.160, 390 684.500 C 389.450 684.840, 389 687.990, 389 691.500 C 389 695.010, 388.550 698.160, 388 698.500 C 387.450 698.840, 387 702.890, 387 707.500 C 387 712.110, 386.550 716.160, 386 716.500 C 385.363 716.894, 385 730.335, 385 753.534 L 385 789.950 381.750 789.343 C 379.962 789.009, 378.073 788.345, 377.550 787.868 C 377.028 787.390, 375.886 787, 375.014 787 C 373.189 787, 352.720 776.913, 350.188 774.766 C 349.259 773.979, 346.832 772.573, 344.792 771.641 C 342.753 770.709, 340.814 769.507, 340.482 768.971 C 340.150 768.434, 337.994 767.135, 335.689 766.083 C 333.385 765.032, 330.409 763.008, 329.076 761.586 C 327.742 760.164, 326.125 759, 325.481 759 C 324.837 759, 323.495 758.100, 322.500 757 C 321.505 755.900, 320.169 755, 319.532 755 C 318.895 755, 317.081 753.650, 315.500 752 C 313.919 750.350, 312.126 749, 311.516 749 C 310.905 749, 308.648 747.200, 306.500 745 C 304.352 742.800, 302.114 741, 301.528 741 C 300.133 741, 281 721.788, 281 720.387 C 281 719.795, 280.100 718.495, 279 717.500 C 277.900 716.505, 277 715.140, 277 714.467 C 277 713.795, 276.347 712.703, 275.548 712.040 C 273.653 710.467, 269 701.104, 269 698.863 C 269 697.903, 268.550 696.840, 268 696.500 C 267.450 696.160, 267 694.810, 267 693.500 C 267 692.190, 266.550 690.840, 266 690.500 C 265.450 690.160, 265 688.810, 265 687.500 C 265 686.190, 264.550 684.840, 264 684.500 C 263.450 684.160, 263 681.910, 263 679.500 C 263 677.090, 262.550 674.840, 262 674.500 C 261.450 674.160, 261 671.460, 261 668.500 C 261 665.540, 260.550 662.840, 260 662.500 C 259.379 662.116, 259 652.843, 259 638 C 259 623.157, 259.379 613.884, 260 613.500 C 260.550 613.160, 261 609.560, 261 605.500 C 261 601.440, 261.450 597.840, 262 597.500 C 262.550 597.160, 263 594.910, 263 592.500 C 263 590.090, 263.450 587.840, 264 587.500 C 264.550 587.160, 265 585.360, 265 583.500 C 265 581.640, 265.450 579.840, 266 579.500 C 266.550 579.160, 267 577.360, 267 575.500 C 267 573.640, 267.450 571.840, 268 571.500 C 268.550 571.160, 269 569.360, 269 567.500 C 269 565.640, 269.450 563.840, 270 563.500 C 271.317 562.686, 271.317 541.314, 270 540.500 C 269.450 540.160, 269 538.647, 269 537.137 C 269 533.315, 264.689 525.060, 260.646 521.142 C 256.940 517.550, 248.694 513, 245.890 513 C 244.915 513, 243.840 512.550, 243.500 512 C 242.674 510.663, 213.326 510.663, 212.500 512 C 212.160 512.550, 210.635 513, 209.110 513 C 207.586 513, 204.161 514.103, 201.498 515.451 C 196.507 517.977, 185 528.541, 185 530.596 C 185 531.234, 184.303 532.334, 183.450 533.041 C 182.598 533.748, 181.024 536.251, 179.953 538.603 C 178.882 540.955, 177.583 543.140, 177.066 543.459 C 175.870 544.198, 173 549.911, 173 551.552 C 173 552.237, 171.650 555.363, 170 558.500 C 168.350 561.637, 167 565.031, 167 566.043 C 167 567.054, 166.550 568.160, 166 568.500 C 165.450 568.840, 165 570.190, 165 571.500 C 165 572.810, 164.550 574.160, 164 574.500 C 163.450 574.840, 163 576.190, 163 577.500 C 163 578.810, 162.550 580.160, 162 580.500 C 161.450 580.840, 161 582.640, 161 584.500 C 161 586.360, 160.550 588.160, 160 588.500 C 159.450 588.840, 159 590.640, 159 592.500 C 159 594.360, 158.550 596.160, 158 596.500 C 157.450 596.840, 157 598.640, 157 600.500 C 157 602.360, 156.550 604.160, 156 604.500 C 155.450 604.840, 155 606.640, 155 608.500 C 155 610.360, 154.550 612.160, 154 612.500 C 153.450 612.840, 153 615.090, 153 617.500 C 153 619.910, 152.550 622.160, 152 622.500 C 151.450 622.840, 151 625.540, 151 628.500 C 151 631.460, 150.550 634.160, 150 634.500 C 149.450 634.840, 149 637.990, 149 641.500 C 149 645.010, 148.550 648.160, 148 648.500 C 147.450 648.840, 147 652.890, 147 657.500 C 147 662.110, 146.550 666.160, 146 666.500 C 144.652 667.333, 144.652 704.667, 146 705.500 C 146.550 705.840, 147 708.540, 147 711.500 C 147 714.460, 147.450 717.160, 148 717.500 C 148.550 717.840, 149 719.640, 149 721.500 C 149 723.360, 149.450 725.160, 150 725.500 C 150.550 725.840, 151 727.190, 151 728.500 C 151 729.810, 151.450 731.160, 152 731.500 C 152.550 731.840, 153 732.978, 153 734.029 C 153 735.079, 153.900 737.542, 155 739.500 C 156.100 741.458, 157 743.653, 157 744.377 C 157 746.074, 159.845 751.786, 161.066 752.541 C 161.583 752.860, 162.882 755.045, 163.953 757.397 C 165.024 759.749, 166.598 762.252, 167.450 762.959 C 168.303 763.666, 169 764.781, 169 765.435 C 169 766.090, 170.350 767.919, 172 769.500 C 173.650 771.081, 175 772.858, 175 773.450 C 175 774.838, 203.186 803, 204.575 803 C 205.153 803, 206.919 804.350, 208.500 806 C 210.081 807.650, 211.895 809, 212.532 809 C 213.169 809, 214.505 809.900, 215.500 811 C 216.495 812.100, 217.845 813, 218.500 813 C 219.155 813, 220.505 813.900, 221.500 815 C 222.495 816.100, 223.860 817, 224.533 817 C 225.205 817, 226.322 817.683, 227.015 818.518 C 227.708 819.354, 229.901 820.779, 231.888 821.686 C 233.874 822.593, 236.258 823.977, 237.183 824.762 C 239.443 826.678, 272.121 843, 273.696 843 C 274.380 843, 276.542 843.900, 278.500 845 C 280.458 846.100, 282.708 847, 283.500 847 C 284.292 847, 286.542 847.900, 288.500 849 C 290.458 850.100, 292.921 851, 293.971 851 C 295.022 851, 296.160 851.450, 296.500 852 C 296.840 852.550, 297.978 853, 299.029 853 C 300.079 853, 302.542 853.900, 304.500 855 C 306.458 856.100, 308.921 857, 309.971 857 C 311.022 857, 312.160 857.450, 312.500 858 C 312.840 858.550, 314.190 859, 315.500 859 C 316.810 859, 318.160 859.450, 318.500 860 C 318.840 860.550, 320.190 861, 321.500 861 C 322.810 861, 324.160 861.450, 324.500 862 C 324.840 862.550, 326.190 863, 327.500 863 C 328.810 863, 330.160 863.450, 330.500 864 C 330.840 864.550, 332.190 865, 333.500 865 C 334.810 865, 336.160 865.450, 336.500 866 C 336.840 866.550, 338.190 867, 339.500 867 C 340.810 867, 342.160 867.450, 342.500 868 C 342.840 868.550, 343.978 869, 345.029 869 C 346.079 869, 348.542 869.900, 350.500 871 C 352.458 872.100, 354.708 873, 355.500 873 C 356.292 873, 358.542 873.900, 360.500 875 C 362.458 876.100, 364.708 877, 365.500 877 C 366.292 877, 368.542 877.900, 370.500 879 C 372.458 880.100, 374.708 881, 375.500 881 C 376.292 881, 378.542 881.900, 380.500 883 C 382.458 884.100, 384.606 885, 385.273 885 C 386.920 885, 404.850 893.949, 405.585 895.138 C 405.908 895.660, 405.628 896.743, 404.964 897.544 C 404.048 898.647, 401.251 899, 393.437 899 C 387.636 899, 382.847 899.438, 382.500 900 C 382.159 900.552, 377.676 901, 372.500 901 C 367.324 901, 362.841 901.448, 362.500 902 C 362.160 902.550, 358.560 903, 354.500 903 C 350.440 903, 346.840 903.450, 346.500 904 C 346.160 904.550, 342.560 905, 338.500 905 C 334.440 905, 330.840 905.450, 330.500 906 C 330.160 906.550, 327.460 907, 324.500 907 C 321.540 907, 318.840 907.450, 318.500 908 C 318.160 908.550, 315.010 909, 311.500 909 C 307.990 909, 304.840 909.450, 304.500 910 C 304.160 910.550, 301.460 911, 298.500 911 C 295.540 911, 292.840 911.450, 292.500 912 C 292.160 912.550, 289.910 913, 287.500 913 C 285.090 913, 282.840 913.450, 282.500 914 C 282.160 914.550, 279.460 915, 276.500 915 C 273.540 915, 270.840 915.450, 270.500 916 C 270.160 916.550, 268.360 917, 266.500 917 C 264.640 917, 262.840 917.450, 262.500 918 C 262.160 918.550, 259.910 919, 257.500 919 C 255.090 919, 252.840 919.450, 252.500 920 C 252.160 920.550, 249.910 921, 247.500 921 C 245.090 921, 242.840 921.450, 242.500 922 C 242.160 922.550, 240.334 923, 238.441 923 C 236.303 923, 235 923.487, 235 924.286 C 235 928.124, 290.993 957.535, 319.940 968.903 C 381.481 993.069, 439.481 1004.193, 504 1004.205 C 570.656 1004.216, 628.308 993.245, 690.500 968.713 C 719.894 957.118, 774.998 928.124, 774.999 924.250 C 775 923.492, 773.645 923, 771.559 923 C 769.666 923, 767.840 922.550, 767.500 922 C 767.160 921.450, 764.910 921, 762.500 921 C 760.090 921, 757.840 920.550, 757.500 920 C 757.160 919.450, 755.360 919, 753.500 919 C 751.640 919, 749.840 918.550, 749.500 918 C 749.160 917.450, 746.910 917, 744.500 917 C 742.090 917, 739.840 916.550, 739.500 916 C 739.160 915.450, 736.460 915, 733.500 915 C 730.540 915, 727.840 914.550, 727.500 914 C 727.160 913.450, 724.910 913, 722.500 913 C 720.090 913, 717.840 912.550, 717.500 912 C 717.160 911.450, 714.460 911, 711.500 911 C 708.540 911, 705.840 910.550, 705.500 910 C 705.160 909.450, 702.460 909, 699.500 909 C 696.540 909, 693.840 908.550, 693.500 908 C 693.160 907.450, 690.010 907, 686.500 907 C 682.990 907, 679.840 906.550, 679.500 906 C 679.160 905.450, 675.560 905, 671.500 905 C 667.440 905, 663.840 904.550, 663.500 904 C 663.160 903.450, 659.560 903, 655.500 903 C 651.440 903, 647.840 902.550, 647.500 902 C 647.160 901.449, 642.697 901, 637.563 901 C 625.639 901, 624.730 900.190, 628.398 892.828 C 629.829 889.957, 631 886.822, 631 885.863 C 631 884.903, 631.450 883.840, 632 883.500 C 632.550 883.160, 633 881.810, 633 880.500 C 633 879.190, 633.450 877.840, 634 877.500 C 634.550 877.160, 635 875.810, 635 874.500 C 635 873.190, 635.450 871.840, 636 871.500 C 636.550 871.160, 637 869.810, 637 868.500 C 637 867.190, 637.450 865.840, 638 865.500 C 638.550 865.160, 639 863.360, 639 861.500 C 639 859.640, 639.450 857.840, 640 857.500 C 640.550 857.160, 641 855.360, 641 853.500 C 641 851.640, 641.450 849.840, 642 849.500 C 642.550 849.160, 643 847.360, 643 845.500 C 643 843.640, 643.450 841.840, 644 841.500 C 644.550 841.160, 645 838.910, 645 836.500 C 645 834.090, 645.450 831.840, 646 831.500 C 646.550 831.160, 647 828.460, 647 825.500 C 647 822.540, 647.450 819.840, 648 819.500 C 648.550 819.160, 649 816.010, 649 812.500 C 649 808.990, 649.450 805.840, 650 805.500 C 650.552 805.159, 651 800.676, 651 795.500 C 651 790.324, 651.448 785.841, 652 785.500 C 653.364 784.657, 653.364 723.343, 652 722.500 C 651.448 722.159, 651 717.676, 651 712.500 C 651 707.324, 650.552 702.841, 650 702.500 C 649.450 702.160, 649 699.010, 649 695.500 C 649 691.990, 648.550 688.840, 648 688.500 C 647.450 688.160, 647 685.460, 647 682.500 C 647 679.540, 646.550 676.840, 646 676.500 C 645.450 676.160, 645 673.910, 645 671.500 C 645 669.090, 644.550 666.840, 644 666.500 C 643.450 666.160, 643 664.360, 643 662.500 C 643 660.640, 642.550 658.840, 642 658.500 C 641.450 658.160, 641 656.360, 641 654.500 C 641 652.640, 640.550 650.840, 640 650.500 C 639.450 650.160, 639 648.360, 639 646.500 C 639 644.640, 638.550 642.840, 638 642.500 C 637.450 642.160, 637 640.810, 637 639.500 C 637 638.190, 636.550 636.840, 636 636.500 C 635.450 636.160, 635 634.810, 635 633.500 C 635 632.190, 634.550 630.840, 634 630.500 C 633.450 630.160, 633 628.810, 633 627.500 C 633 626.190, 632.550 624.840, 632 624.500 C 631.450 624.160, 631 623.022, 631 621.971 C 631 620.921, 630.100 618.458, 629 616.500 C 627.900 614.542, 627 612.324, 627 611.571 C 627 610.819, 625.651 607.638, 624.002 604.503 C 621.052 598.897, 620.893 597, 623.372 597 C 624.062 597, 625.919 595.650, 627.500 594 C 629.081 592.350, 630.862 591, 631.459 591 C 632.845 591, 649 574.806, 649 573.416 C 649 572.843, 650.350 571.081, 652 569.500 C 653.650 567.919, 655 566.090, 655 565.435 C 655 564.781, 655.653 563.703, 656.452 563.040 C 658.138 561.640, 663 552.207, 663 550.334 C 663 549.634, 663.900 547.458, 665 545.500 C 666.100 543.542, 667 540.629, 667 539.029 C 667 537.428, 667.450 535.840, 668 535.500 C 668.632 535.110, 669 523.509, 669 504 C 669 484.491, 668.632 472.890, 668 472.500 C 667.428 472.147, 667 467.009, 667 460.500 C 667 453.991, 666.572 448.853, 666 448.500 C 665.450 448.160, 665 444.110, 665 439.500 C 665 434.890, 664.550 430.840, 664 430.500 C 663.450 430.160, 663 426.560, 663 422.500 C 663 418.440, 662.550 414.840, 662 414.500 C 661.450 414.160, 661 411.010, 661 407.500 C 661 403.990, 660.550 400.840, 660 400.500 C 659.450 400.160, 659 397.460, 659 394.500 C 659 391.540, 658.550 388.840, 658 388.500 C 657.450 388.160, 657 385.910, 657 383.500 C 657 381.090, 656.550 378.840, 656 378.500 C 655.450 378.160, 655 375.910, 655 373.500 C 655 371.090, 654.550 368.840, 654 368.500 C 653.450 368.160, 653 365.910, 653 363.500 C 653 361.090, 652.550 358.840, 652 358.500 C 651.450 358.160, 651 356.360, 651 354.500 C 651 352.640, 650.550 350.840, 650 350.500 C 649.450 350.160, 649 348.360, 649 346.500 C 649 344.640, 648.550 342.840, 648 342.500 C 647.450 342.160, 647 340.810, 647 339.500 C 647 338.190, 646.550 336.840, 646 336.500 C 645.450 336.160, 645 334.810, 645 333.500 C 645 332.190, 644.550 330.840, 644 330.500 C 643.450 330.160, 643 329.022, 643 327.971 C 643 326.921, 642.100 324.458, 641 322.500 C 639.900 320.542, 639 318.366, 639 317.666 C 639 315.793, 634.138 306.360, 632.452 304.960 C 631.653 304.297, 631 303.232, 631 302.593 C 631 301.034, 621.199 291.738, 617.750 290.027 C 615.426 288.874, 614.574 288.874, 612.250 290.029 C 608.792 291.747, 601 299.037, 601 300.553 C 601 301.178, 600.100 302.505, 599 303.500 C 597.900 304.495, 597 305.845, 597 306.500 C 597 307.155, 596.100 308.505, 595 309.500 C 593.900 310.495, 593 311.860, 593 312.533 C 593 313.205, 592.303 314.334, 591.450 315.041 C 590.598 315.748, 589.046 318.205, 588 320.500 C 586.954 322.795, 585.402 325.252, 584.550 325.959 C 583.697 326.666, 583 327.810, 583 328.500 C 583 329.190, 582.303 330.334, 581.450 331.041 C 580.598 331.748, 579.046 334.205, 578 336.500 C 576.954 338.795, 575.402 341.252, 574.550 341.959 C 573.697 342.666, 573 343.795, 573 344.467 C 573 345.140, 572.100 346.505, 571 347.500 C 569.900 348.495, 569 349.845, 569 350.500 C 569 351.155, 568.100 352.505, 567 353.500 C 565.900 354.495, 565 355.845, 565 356.500 C 565 357.155, 564.100 358.505, 563 359.500 C 561.900 360.495, 561 361.831, 561 362.468 C 561 363.105, 559.650 364.919, 558 366.500 C 556.350 368.081, 555 369.869, 555 370.475 C 555 371.080, 552.750 373.791, 550 376.500 C 547.250 379.209, 545 381.913, 545 382.509 C 545 383.106, 543.194 385.358, 540.987 387.513 L 536.973 391.432 528.737 391.135 C 524.206 390.972, 520.072 390.425, 519.550 389.919 C 518.251 388.662, 495.281 388.736, 494.500 390 C 494.160 390.550, 490.880 391, 487.211 391 L 480.540 391 471.770 382.271 C 466.946 377.470, 463 373.054, 463 372.458 C 463 371.862, 461.650 370.081, 460 368.500 C 458.350 366.919, 457 365.105, 457 364.468 C 457 363.831, 456.100 362.495, 455 361.500 C 453.900 360.505, 453 359.155, 453 358.500 C 453 357.845, 452.100 356.495, 451 355.500 C 449.900 354.505, 449 353.155, 449 352.500 C 449 351.845, 448.100 350.495, 447 349.500 C 445.900 348.505, 445 347.140, 445 346.467 C 445 345.795, 444.303 344.666, 443.450 343.959 C 442.598 343.252, 441.046 340.795, 440 338.500 C 438.954 336.205, 437.402 333.748, 436.550 333.041 C 435.697 332.334, 435 331.190, 435 330.500 C 435 329.810, 434.303 328.666, 433.450 327.959 C 432.598 327.252, 431.046 324.795, 430 322.500 C 428.954 320.205, 427.402 317.748, 426.550 317.041 C 425.697 316.334, 425 315.205, 425 314.533 C 425 313.860, 424.100 312.495, 423 311.500 C 421.900 310.505, 421 309.155, 421 308.500 C 421 307.845, 420.100 306.495, 419 305.500 C 417.900 304.505, 417 303.182, 417 302.561 C 417 301.233, 407.503 292.050, 404.264 290.246 C 401.570 288.745, 400.236 288.790, 397.156 290.487" stroke="none" fill="#040404" fill-rule="evenodd"/><path d="M 494.500 0.675 C 451.994 1.812, 398.448 10.129, 363.310 21.052 C 315.456 35.927, 285.351 49.233, 243.500 74.006 C 177.661 112.978, 115.093 175.300, 74.766 242.076 C 32.964 311.294, 9.348 384.111, 2.401 465.201 C 0.165 491.301, 0.189 529.339, 2.453 548 C 2.620 549.375, 3.074 554.053, 3.463 558.395 C 3.852 562.737, 4.307 567.012, 4.474 567.895 C 4.642 568.778, 5.077 571.750, 5.443 574.500 C 6.206 580.245, 6.987 585.338, 7.565 588.337 C 7.785 589.482, 8.234 592.238, 8.562 594.460 C 8.890 596.682, 9.776 601.200, 10.532 604.500 C 11.287 607.800, 12.168 612.075, 12.489 614 C 12.809 615.925, 13.300 618.252, 13.578 619.170 C 13.856 620.089, 14.282 621.664, 14.524 622.670 C 14.951 624.450, 18.642 638.993, 19.430 642 C 19.646 642.825, 20.258 644.625, 20.791 646 C 21.324 647.375, 21.814 648.837, 21.880 649.250 C 21.946 649.663, 22.034 650.112, 22.077 650.250 C 22.119 650.388, 22.297 651.175, 22.474 652 C 22.849 653.754, 28.774 671.799, 29.698 674 C 30.044 674.825, 30.404 675.725, 30.497 676 C 30.591 676.275, 31.192 677.767, 31.834 679.315 C 32.475 680.863, 33 682.482, 33 682.911 C 33 683.341, 33.718 685.131, 34.595 686.890 C 35.472 688.648, 36.297 690.630, 36.429 691.293 C 36.687 692.594, 37.864 695.391, 41.778 704 C 43.153 707.025, 44.291 710.063, 44.306 710.750 C 44.321 711.438, 44.708 712, 45.167 712 C 45.625 712, 45.909 712.337, 45.798 712.750 C 45.686 713.163, 47.589 717.550, 50.027 722.500 C 52.465 727.450, 54.356 731.837, 54.229 732.250 C 54.103 732.663, 54.450 733, 55 733 C 55.550 733, 56 733.487, 56 734.082 C 56 734.677, 57.561 737.827, 59.469 741.082 C 61.376 744.337, 62.694 747, 62.397 747 C 62.100 747, 62.564 747.707, 63.429 748.571 C 64.293 749.436, 65 750.731, 65 751.449 C 65 752.167, 65.670 753.311, 66.489 753.991 C 67.308 754.671, 67.731 755.626, 67.430 756.113 C 67.129 756.601, 67.350 757, 67.922 757 C 68.494 757, 69.244 758.125, 69.589 759.500 C 69.934 760.875, 70.574 762, 71.011 762 C 71.447 762, 72.292 763.237, 72.888 764.750 C 74.058 767.721, 75.247 769.736, 78.747 774.683 C 79.986 776.434, 81 778.347, 81 778.933 C 81 779.520, 81.450 780, 82 780 C 82.550 780, 83 780.675, 83 781.500 C 83 782.325, 83.450 783, 84 783 C 84.550 783, 85 783.637, 85 784.417 C 85 785.196, 85.364 785.983, 85.808 786.167 C 86.253 786.350, 88.380 789.200, 90.536 792.500 C 92.692 795.800, 94.916 799.047, 95.478 799.715 C 96.040 800.384, 97.063 801.602, 97.750 802.423 C 98.438 803.244, 99 804.285, 99 804.736 C 99 805.187, 99.788 806.260, 100.750 807.122 C 101.713 807.984, 103.175 809.729, 104 811 C 104.825 812.271, 106.287 814.016, 107.250 814.878 C 108.213 815.740, 109 816.855, 109 817.358 C 109 817.860, 110.013 819.272, 111.250 820.495 C 112.488 821.718, 114.400 823.914, 115.500 825.375 C 120.258 831.693, 122.784 834.646, 127.250 839.116 C 129.863 841.731, 132 844.098, 132 844.376 C 132 845.039, 165.613 878.393, 171.190 883.264 C 178.379 889.543, 181.782 892.404, 184.551 894.500 C 186.004 895.600, 188.279 897.400, 189.607 898.500 C 190.934 899.600, 193.192 901.400, 194.624 902.500 C 196.056 903.600, 197.951 905.288, 198.836 906.250 C 199.721 907.212, 201.019 908, 201.722 908 C 202.425 908, 203 908.429, 203 908.953 C 203 909.477, 204.575 910.654, 206.500 911.567 C 208.425 912.480, 210 913.641, 210 914.145 C 210 914.650, 210.787 915.353, 211.750 915.708 C 213.825 916.473, 220.356 921.177, 220.833 922.250 C 221.017 922.662, 221.804 923, 222.583 923 C 223.362 923, 224 923.450, 224 924 C 224 924.550, 224.675 925, 225.500 925 C 226.325 925, 227 925.450, 227 926 C 227 926.550, 227.590 927, 228.311 927 C 229.033 927, 230.589 927.900, 231.770 929 C 232.950 930.100, 234.316 931, 234.805 931 C 235.294 931, 236.732 931.900, 238 933 C 239.268 934.100, 240.912 935, 241.653 935 C 242.394 935, 243.007 935.337, 243.016 935.750 C 243.024 936.163, 245.274 937.601, 248.016 938.947 C 250.757 940.293, 253 941.720, 253 942.119 C 253 942.518, 254.575 943.365, 256.500 944 C 258.425 944.635, 260 945.474, 260 945.865 C 260 946.255, 263.375 948.116, 267.500 950 C 271.625 951.884, 275 953.806, 275 954.272 C 275 954.737, 275.450 954.840, 276 954.500 C 276.550 954.160, 277 954.434, 277 955.108 C 277 955.782, 277.301 956.032, 277.669 955.664 C 278.037 955.297, 279.162 955.741, 280.169 956.653 C 281.176 957.564, 282 958.022, 282 957.670 C 282 957.318, 284.688 958.397, 287.974 960.066 C 291.260 961.736, 294.247 963.041, 294.612 962.966 C 294.978 962.891, 295.585 963.328, 295.962 963.938 C 296.339 964.548, 297.575 965.226, 298.710 965.444 C 299.845 965.663, 301.612 966.291, 302.637 966.840 C 307.706 969.558, 313 971.912, 313 971.449 C 313 971.163, 314.013 971.492, 315.250 972.179 C 316.488 972.867, 317.725 973.484, 318 973.551 C 318.834 973.754, 323.624 975.590, 329.379 977.913 C 333.332 979.508, 356.119 987.120, 358.129 987.517 C 359.025 987.694, 361.816 988.537, 364.330 989.391 C 366.845 990.245, 369.937 991.140, 371.201 991.380 C 372.466 991.620, 374.738 992.296, 376.250 992.883 C 377.762 993.470, 379 993.748, 379 993.500 C 379 993.252, 380.148 993.486, 381.551 994.020 C 382.955 994.553, 385.542 995.233, 387.301 995.531 C 389.061 995.828, 391.252 996.300, 392.170 996.578 C 393.089 996.856, 394.664 997.253, 395.670 997.459 C 403.323 999.027, 413.083 1000.928, 416 1001.419 C 417.925 1001.743, 420.607 1002.223, 421.960 1002.487 C 424.163 1002.916, 426.085 1003.208, 435 1004.469 C 436.375 1004.664, 440.184 1005.132, 443.465 1005.510 C 446.746 1005.888, 450.126 1006.332, 450.977 1006.496 C 451.829 1006.660, 457.019 1007.125, 462.512 1007.530 C 468.006 1007.934, 473.850 1008.412, 475.500 1008.591 C 479.609 1009.036, 530.656 1009.029, 535 1008.583 C 536.925 1008.385, 542.550 1007.922, 547.500 1007.555 C 552.450 1007.187, 557.625 1006.707, 559 1006.488 C 560.375 1006.269, 565.401 1005.611, 570.168 1005.027 C 586.307 1003.048, 587.498 1002.880, 589 1002.364 C 589.825 1002.080, 592.300 1001.644, 594.500 1001.393 C 596.700 1001.143, 599.175 1000.691, 600 1000.390 C 600.825 1000.088, 603.750 999.443, 606.500 998.957 C 614.775 997.493, 617.181 996.957, 624.257 994.996 C 627.984 993.963, 631.138 993.129, 631.266 993.141 C 632.136 993.225, 638.129 991.594, 641.250 990.423 C 643.313 989.649, 645 989.244, 645 989.522 C 645 989.799, 646.462 989.416, 648.250 988.669 C 650.038 987.922, 651.849 987.274, 652.275 987.230 C 653.093 987.144, 671.438 981.256, 674 980.258 C 674.825 979.936, 675.837 979.578, 676.250 979.461 C 676.663 979.345, 677.225 979.138, 677.500 979 C 677.775 978.862, 678.337 978.655, 678.750 978.539 C 679.668 978.280, 682.733 977.129, 685.750 975.909 C 686.987 975.409, 689.013 974.591, 690.250 974.091 C 693.536 972.763, 696.428 971.686, 697 971.579 C 697.459 971.492, 700.571 970.112, 708.500 966.477 C 710.150 965.721, 716.112 962.844, 721.750 960.083 C 727.388 957.322, 732 955.280, 732 955.544 C 732 955.809, 733.688 954.986, 735.750 953.717 C 737.813 952.448, 741.862 950.311, 744.750 948.968 C 747.637 947.626, 750 946.268, 750 945.951 C 750 945.633, 751.575 944.755, 753.500 944 C 755.425 943.245, 757 942.296, 757 941.891 C 757 941.486, 758.575 940.635, 760.500 940 C 762.425 939.365, 764 938.430, 764 937.922 C 764 937.415, 764.605 937, 765.345 937 C 766.085 937, 767.495 936.111, 768.479 935.024 C 769.462 933.937, 770.619 933.264, 771.048 933.530 C 771.478 933.795, 771.980 933.672, 772.165 933.256 C 772.698 932.054, 780.484 927, 781.804 927 C 782.462 927, 783 926.550, 783 926 C 783 925.450, 783.675 925, 784.500 925 C 785.325 925, 786 924.550, 786 924 C 786 923.450, 786.638 923, 787.417 923 C 788.196 923, 788.983 922.662, 789.167 922.250 C 789.679 921.098, 796.742 916, 797.826 916 C 798.354 916, 799.056 915.296, 799.386 914.437 C 799.716 913.577, 800.359 913.104, 800.815 913.385 C 801.270 913.667, 802.367 913.133, 803.251 912.199 C 805.609 909.708, 807.806 908.004, 808.708 907.968 C 809.144 907.951, 811.053 906.376, 812.952 904.468 C 814.850 902.561, 816.875 900.985, 817.452 900.967 C 818.028 900.949, 820.288 899.149, 822.473 896.967 C 824.658 894.785, 826.780 893, 827.189 893 C 827.597 893, 829.409 891.643, 831.216 889.985 C 833.022 888.327, 836.408 885.289, 838.741 883.235 C 843.700 878.868, 878.258 844.350, 883.529 838.500 C 891.863 829.250, 893.001 827.897, 893.017 827.216 C 893.026 826.822, 894.939 824.432, 897.267 821.905 C 899.595 819.378, 902.175 816.270, 903 814.999 C 903.825 813.728, 905.288 811.984, 906.250 811.122 C 907.212 810.260, 908 809.173, 908 808.706 C 908 808.239, 908.563 807.230, 909.250 806.463 C 912.478 802.863, 913.500 801.487, 913.500 800.738 C 913.500 800.292, 913.950 799.606, 914.500 799.214 C 915.050 798.821, 915.950 797.780, 916.500 796.900 C 920.222 790.943, 923.423 786.451, 924.149 786.167 C 924.617 785.983, 925 785.196, 925 784.417 C 925 783.638, 925.450 783, 926 783 C 926.550 783, 927 782.462, 927 781.804 C 927 780.792, 931.417 773.571, 932.997 772 C 934.006 770.997, 936.073 767.456, 936.646 765.750 C 936.969 764.788, 937.596 764, 938.039 764 C 938.482 764, 939.365 762.425, 940 760.500 C 940.635 758.575, 941.597 757, 942.137 757 C 942.676 757, 942.840 756.550, 942.500 756 C 942.160 755.450, 942.328 755, 942.874 755 C 943.419 755, 944.176 754.022, 944.555 752.827 C 944.934 751.632, 945.645 750.169, 946.135 749.577 C 947.259 748.219, 964.080 714.207, 966.946 707.500 C 968.121 704.750, 969.764 701.262, 970.598 699.750 C 971.431 698.237, 971.886 697, 971.608 697 C 971.139 697, 972.270 693.941, 975.488 686.500 C 976.921 683.186, 978.213 679.905, 978.539 678.750 C 978.655 678.337, 978.841 677.888, 978.952 677.750 C 979.062 677.612, 979.305 676.825, 979.490 676 C 979.761 674.792, 984.393 660.809, 986.777 654 C 988.484 649.124, 996.189 620.469, 997.497 614.132 C 997.682 613.234, 998.531 609.125, 999.382 605 C 1000.234 600.875, 1001.187 595.925, 1001.501 594 C 1001.815 592.075, 1002.251 589.825, 1002.470 589 C 1002.689 588.175, 1003.120 585.475, 1003.427 583 C 1003.735 580.525, 1004.447 574.900, 1005.009 570.500 C 1005.965 563.021, 1006.239 560.647, 1007.487 549 C 1007.752 546.525, 1008.258 538.650, 1008.610 531.500 C 1008.962 524.350, 1009.643 517.742, 1010.125 516.816 C 1011.263 514.625, 1011.267 492.269, 1010.129 491.833 C 1009.650 491.650, 1008.945 485.425, 1008.561 478 C 1007.834 463.926, 1007.401 458.221, 1006.547 451.500 C 1006.268 449.300, 1005.783 445.250, 1005.471 442.500 C 1005.159 439.750, 1004.726 436.375, 1004.509 435 C 1004.293 433.625, 1003.857 430.682, 1003.541 428.460 C 1003.225 426.238, 1002.746 423.313, 1002.477 421.960 C 1002.208 420.607, 1001.516 416.575, 1000.939 413 C 1000.361 409.425, 999.427 404.475, 998.861 402 C 998.296 399.525, 997.651 396.600, 997.428 395.500 C 996.374 390.302, 991.630 371.762, 989.751 365.500 C 988.597 361.650, 987.556 358.050, 987.440 357.500 C 986.903 354.967, 979.755 334.157, 978.457 331.349 C 977.655 329.616, 977 327.715, 977 327.126 C 977 326.536, 976.034 323.904, 974.854 321.277 C 973.673 318.650, 972.369 315.600, 971.956 314.500 C 971.542 313.400, 970.453 310.700, 969.534 308.500 C 968.616 306.300, 967.521 303.600, 967.100 302.500 C 966.679 301.400, 964.202 296.337, 961.595 291.250 C 958.988 286.163, 957.183 282, 957.583 282 C 957.983 282, 957.564 281.176, 956.653 280.169 C 955.741 279.162, 955.297 278.037, 955.664 277.669 C 956.032 277.301, 955.782 277, 955.108 277 C 954.434 277, 954.160 276.550, 954.500 276 C 954.840 275.450, 954.724 275, 954.243 275 C 953.762 275, 952.047 272.188, 950.434 268.750 C 948.820 265.313, 947.160 262.349, 946.744 262.165 C 946.328 261.980, 946.242 261.418, 946.553 260.915 C 946.864 260.412, 946.696 260, 946.180 260 C 945.665 260, 944.645 258.538, 943.914 256.750 C 943.183 254.963, 942.003 252.905, 941.292 252.179 C 940.582 251.452, 940 250.246, 940 249.500 C 940 248.754, 939.438 247.529, 938.750 246.779 C 936.925 244.789, 935.027 241.753, 934.354 239.750 C 934.031 238.787, 933.369 238, 932.883 238 C 932.398 238, 932 237.395, 932 236.656 C 932 235.916, 930.876 234.004, 929.501 232.406 C 928.127 230.807, 927.002 228.938, 927.001 228.250 C 927.001 227.563, 926.550 227, 926 227 C 925.450 227, 925 226.325, 925 225.500 C 925 224.675, 924.550 224, 924 224 C 923.450 224, 923 223.325, 923 222.500 C 923 221.675, 922.663 220.999, 922.250 220.998 C 921.837 220.997, 920.179 218.905, 918.563 216.348 C 916.948 213.792, 914.586 210.577, 913.313 209.204 C 912.041 207.831, 911 206.085, 911 205.323 C 911 204.561, 910.325 203.678, 909.500 203.362 C 908.675 203.045, 908 202.259, 908 201.615 C 908 200.971, 907.212 199.734, 906.250 198.866 C 905.288 197.999, 903.645 196.093, 902.600 194.631 C 901.555 193.169, 898.752 189.842, 896.372 187.237 C 893.992 184.632, 892.034 182.183, 892.022 181.795 C 892.010 181.408, 890.987 179.959, 889.750 178.576 C 888.513 177.193, 885.700 173.980, 883.500 171.435 C 881.300 168.890, 871.175 158.579, 861 148.521 C 850.825 138.464, 840.890 128.607, 838.922 126.617 C 836.954 124.628, 834.917 123, 834.395 123 C 833.873 123, 832.225 121.763, 830.733 120.250 C 825.219 114.658, 823.263 113, 822.180 113 C 821.570 113, 820.589 112.100, 820 111 C 819.411 109.900, 818.370 109, 817.687 109 C 817.004 109, 815.701 108.213, 814.793 107.250 C 812.187 104.489, 810.172 103, 809.042 103 C 808.469 103, 808 102.562, 808 102.026 C 808 101.490, 806.763 100.403, 805.250 99.611 C 803.737 98.818, 801.600 97.336, 800.500 96.318 C 799.400 95.299, 795.800 92.700, 792.500 90.541 C 789.200 88.383, 786.350 86.253, 786.167 85.808 C 785.983 85.364, 785.196 85, 784.417 85 C 783.637 85, 783 84.550, 783 84 C 783 83.450, 782.325 83, 781.500 83 C 780.675 83, 780 82.660, 780 82.244 C 780 81.828, 778.640 80.886, 776.978 80.150 C 775.316 79.415, 773.384 78.292, 772.686 77.656 C 770.688 75.837, 767.739 74.065, 764.750 72.888 C 763.237 72.292, 762 71.372, 762 70.843 C 762 70.315, 761.618 70.118, 761.151 70.406 C 760.685 70.695, 759.447 70.159, 758.401 69.215 C 757.356 68.272, 755.150 66.844, 753.500 66.043 C 751.850 65.242, 749.712 63.935, 748.750 63.138 C 747.787 62.342, 746.993 62.097, 746.985 62.595 C 746.976 63.093, 746.639 63.050, 746.235 62.500 C 745.831 61.950, 742.800 60.184, 739.500 58.575 C 736.200 56.966, 733.225 55.240, 732.888 54.740 C 732.552 54.239, 731.985 53.876, 731.630 53.932 C 731.274 53.989, 727.610 52.456, 723.488 50.526 C 719.365 48.596, 715.707 47.051, 715.358 47.094 C 715.009 47.136, 714.403 46.652, 714.012 46.019 C 713.620 45.385, 712.670 44.741, 711.900 44.587 C 709.871 44.182, 705.063 42.188, 700.750 39.965 C 698.688 38.902, 697 38.305, 697 38.638 C 697 38.972, 696.371 38.723, 695.602 38.085 C 694.833 37.447, 693.235 36.738, 692.050 36.510 C 690.866 36.282, 688.501 35.399, 686.795 34.547 C 685.089 33.696, 683.341 33, 682.911 33 C 682.482 33, 680.863 32.475, 679.315 31.834 C 677.767 31.192, 676.275 30.591, 676 30.497 C 675.725 30.404, 674.825 30.065, 674 29.745 C 670.946 28.559, 653.603 22.807, 652.079 22.474 C 651.210 22.285, 646.675 20.960, 642 19.531 C 637.325 18.102, 631.925 16.677, 630 16.366 C 628.075 16.054, 625.712 15.379, 624.750 14.865 C 623.788 14.350, 623 14.159, 623 14.440 C 623 14.721, 621.950 14.551, 620.667 14.063 C 619.384 13.576, 616.796 12.920, 614.917 12.606 C 611.389 12.018, 609.987 11.745, 601.500 10 C 595.010 8.665, 592.171 8.120, 588.500 7.504 C 581.535 6.335, 579.217 6.012, 574 5.480 C 570.975 5.171, 567.600 4.734, 566.500 4.509 C 565.400 4.284, 561.575 3.810, 558 3.456 C 554.425 3.103, 550.150 2.656, 548.500 2.463 C 546.850 2.270, 538.300 1.850, 529.500 1.530 C 520.700 1.210, 511.250 0.833, 508.500 0.691 C 505.750 0.550, 499.450 0.543, 494.500 0.675 M 397.156 290.487 C 393.922 292.268, 387 299.148, 387 300.581 C 387 301.227, 386.351 302.294, 385.557 302.952 C 383.693 304.499, 375 321.994, 375 324.199 C 375 325.124, 374.550 326.160, 374 326.500 C 373.450 326.840, 373 328.190, 373 329.500 C 373 330.810, 372.550 332.160, 372 332.500 C 371.450 332.840, 371 334.190, 371 335.500 C 371 336.810, 370.550 338.160, 370 338.500 C 369.450 338.840, 369 340.190, 369 341.500 C 369 342.810, 368.550 344.160, 368 344.500 C 367.450 344.840, 367 346.640, 367 348.500 C 367 350.360, 366.550 352.160, 366 352.500 C 365.450 352.840, 365 354.640, 365 356.500 C 365 358.360, 364.550 360.160, 364 360.500 C 363.450 360.840, 363 363.090, 363 365.500 C 363 367.910, 362.550 370.160, 362 370.500 C 361.450 370.840, 361 373.090, 361 375.500 C 361 377.910, 360.550 380.160, 360 380.500 C 359.450 380.840, 359 383.540, 359 386.500 C 359 389.460, 358.550 392.160, 358 392.500 C 357.450 392.840, 357 395.540, 357 398.500 C 357 401.460, 356.550 404.160, 356 404.500 C 355.450 404.840, 355 407.990, 355 411.500 C 355 415.010, 354.550 418.160, 354 418.500 C 353.450 418.840, 353 422.440, 353 426.500 C 353 430.560, 352.550 434.160, 352 434.500 C 351.448 434.841, 351 439.324, 351 444.500 C 351 449.676, 350.552 454.159, 350 454.500 C 349.414 454.862, 349 460.657, 349 468.500 C 349 476.343, 348.586 482.138, 348 482.500 C 347.377 482.885, 347 492.491, 347 508 C 347 523.509, 347.377 533.115, 348 533.500 C 348.550 533.840, 349 535.640, 349 537.500 C 349 539.360, 349.450 541.160, 350 541.500 C 350.550 541.840, 351 542.876, 351 543.801 C 351 546.006, 359.693 563.501, 361.557 565.048 C 362.351 565.706, 363 566.773, 363 567.419 C 363 568.066, 364.800 570.352, 367 572.500 C 369.200 574.648, 371 576.860, 371 577.415 C 371 578.787, 379.145 587, 380.505 587 C 381.104 587, 383.352 588.800, 385.500 591 C 387.648 593.200, 389.920 595, 390.548 595 C 391.176 595, 392.505 595.900, 393.500 597 C 394.495 598.100, 395.860 599, 396.533 599 C 397.205 599, 398.307 599.665, 398.981 600.477 C 399.655 601.289, 402.748 603.170, 405.853 604.657 C 408.959 606.143, 411.659 607.476, 411.854 607.618 C 412.049 607.759, 411.487 609.323, 410.604 611.091 C 409.722 612.860, 409 614.899, 409 615.623 C 409 616.347, 408.100 618.542, 407 620.500 C 405.900 622.458, 405 624.921, 405 625.971 C 405 627.022, 404.550 628.160, 404 628.500 C 403.450 628.840, 403 630.190, 403 631.500 C 403 632.810, 402.550 634.160, 402 634.500 C 401.450 634.840, 401 636.190, 401 637.500 C 401 638.810, 400.550 640.160, 400 640.500 C 399.450 640.840, 399 642.640, 399 644.500 C 399 646.360, 398.550 648.160, 398 648.500 C 397.450 648.840, 397 650.640, 397 652.500 C 397 654.360, 396.550 656.160, 396 656.500 C 395.450 656.840, 395 658.640, 395 660.500 C 395 662.360, 394.550 664.160, 394 664.500 C 393.450 664.840, 393 667.090, 393 669.500 C 393 671.910, 392.550 674.160, 392 674.500 C 391.450 674.840, 391 677.090, 391 679.500 C 391 681.910, 390.550 684.160, 390 684.500 C 389.450 684.840, 389 687.990, 389 691.500 C 389 695.010, 388.550 698.160, 388 698.500 C 387.450 698.840, 387 702.890, 387 707.500 C 387 712.110, 386.550 716.160, 386 716.500 C 385.363 716.894, 385 730.335, 385 753.534 L 385 789.950 381.750 789.343 C 379.962 789.009, 378.073 788.345, 377.550 787.868 C 377.028 787.390, 375.886 787, 375.014 787 C 373.189 787, 352.720 776.913, 350.188 774.766 C 349.259 773.979, 346.832 772.573, 344.792 771.641 C 342.753 770.709, 340.814 769.507, 340.482 768.971 C 340.150 768.434, 337.994 767.135, 335.689 766.083 C 333.385 765.032, 330.409 763.008, 329.076 761.586 C 327.742 760.164, 326.125 759, 325.481 759 C 324.837 759, 323.495 758.100, 322.500 757 C 321.505 755.900, 320.169 755, 319.532 755 C 318.895 755, 317.081 753.650, 315.500 752 C 313.919 750.350, 312.126 749, 311.516 749 C 310.905 749, 308.648 747.200, 306.500 745 C 304.352 742.800, 302.114 741, 301.528 741 C 300.133 741, 281 721.788, 281 720.387 C 281 719.795, 280.100 718.495, 279 717.500 C 277.900 716.505, 277 715.140, 277 714.467 C 277 713.795, 276.347 712.703, 275.548 712.040 C 273.653 710.467, 269 701.104, 269 698.863 C 269 697.903, 268.550 696.840, 268 696.500 C 267.450 696.160, 267 694.810, 267 693.500 C 267 692.190, 266.550 690.840, 266 690.500 C 265.450 690.160, 265 688.810, 265 687.500 C 265 686.190, 264.550 684.840, 264 684.500 C 263.450 684.160, 263 681.910, 263 679.500 C 263 677.090, 262.550 674.840, 262 674.500 C 261.450 674.160, 261 671.460, 261 668.500 C 261 665.540, 260.550 662.840, 260 662.500 C 259.379 662.116, 259 652.843, 259 638 C 259 623.157, 259.379 613.884, 260 613.500 C 260.550 613.160, 261 609.560, 261 605.500 C 261 601.440, 261.450 597.840, 262 597.500 C 262.550 597.160, 263 594.910, 263 592.500 C 263 590.090, 263.450 587.840, 264 587.500 C 264.550 587.160, 265 585.360, 265 583.500 C 265 581.640, 265.450 579.840, 266 579.500 C 266.550 579.160, 267 577.360, 267 575.500 C 267 573.640, 267.450 571.840, 268 571.500 C 268.550 571.160, 269 569.360, 269 567.500 C 269 565.640, 269.450 563.840, 270 563.500 C 271.317 562.686, 271.317 541.314, 270 540.500 C 269.450 540.160, 269 538.647, 269 537.137 C 269 533.315, 264.689 525.060, 260.646 521.142 C 256.940 517.550, 248.694 513, 245.890 513 C 244.915 513, 243.840 512.550, 243.500 512 C 242.674 510.663, 213.326 510.663, 212.500 512 C 212.160 512.550, 210.635 513, 209.110 513 C 207.586 513, 204.161 514.103, 201.498 515.451 C 196.507 517.977, 185 528.541, 185 530.596 C 185 531.234, 184.303 532.334, 183.450 533.041 C 182.598 533.748, 181.024 536.251, 179.953 538.603 C 178.882 540.955, 177.583 543.140, 177.066 543.459 C 175.870 544.198, 173 549.911, 173 551.552 C 173 552.237, 171.650 555.363, 170 558.500 C 168.350 561.637, 167 565.031, 167 566.043 C 167 567.054, 166.550 568.160, 166 568.500 C 165.450 568.840, 165 570.190, 165 571.500 C 165 572.810, 164.550 574.160, 164 574.500 C 163.450 574.840, 163 576.190, 163 577.500 C 163 578.810, 162.550 580.160, 162 580.500 C 161.450 580.840, 161 582.640, 161 584.500 C 161 586.360, 160.550 588.160, 160 588.500 C 159.450 588.840, 159 590.640, 159 592.500 C 159 594.360, 158.550 596.160, 158 596.500 C 157.450 596.840, 157 598.640, 157 600.500 C 157 602.360, 156.550 604.160, 156 604.500 C 155.450 604.840, 155 606.640, 155 608.500 C 155 610.360, 154.550 612.160, 154 612.500 C 153.450 612.840, 153 615.090, 153 617.500 C 153 619.910, 152.550 622.160, 152 622.500 C 151.450 622.840, 151 625.540, 151 628.500 C 151 631.460, 150.550 634.160, 150 634.500 C 149.450 634.840, 149 637.990, 149 641.500 C 149 645.010, 148.550 648.160, 148 648.500 C 147.450 648.840, 147 652.890, 147 657.500 C 147 662.110, 146.550 666.160, 146 666.500 C 144.652 667.333, 144.652 704.667, 146 705.500 C 146.550 705.840, 147 708.540, 147 711.500 C 147 714.460, 147.450 717.160, 148 717.500 C 148.550 717.840, 149 719.640, 149 721.500 C 149 723.360, 149.450 725.160, 150 725.500 C 150.550 725.840, 151 727.190, 151 728.500 C 151 729.810, 151.450 731.160, 152 731.500 C 152.550 731.840, 153 732.978, 153 734.029 C 153 735.079, 153.900 737.542, 155 739.500 C 156.100 741.458, 157 743.653, 157 744.377 C 157 746.074, 159.845 751.786, 161.066 752.541 C 161.583 752.860, 162.882 755.045, 163.953 757.397 C 165.024 759.749, 166.598 762.252, 167.450 762.959 C 168.303 763.666, 169 764.781, 169 765.435 C 169 766.090, 170.350 767.919, 172 769.500 C 173.650 771.081, 175 772.858, 175 773.450 C 175 774.838, 203.186 803, 204.575 803 C 205.153 803, 206.919 804.350, 208.500 806 C 210.081 807.650, 211.895 809, 212.532 809 C 213.169 809, 214.505 809.900, 215.500 811 C 216.495 812.100, 217.845 813, 218.500 813 C 219.155 813, 220.505 813.900, 221.500 815 C 222.495 816.100, 223.860 817, 224.533 817 C 225.205 817, 226.322 817.683, 227.015 818.518 C 227.708 819.354, 229.901 820.779, 231.888 821.686 C 233.874 822.593, 236.258 823.977, 237.183 824.762 C 239.443 826.678, 272.121 843, 273.696 843 C 274.380 843, 276.542 843.900, 278.500 845 C 280.458 846.100, 282.708 847, 283.500 847 C 284.292 847, 286.542 847.900, 288.500 849 C 290.458 850.100, 292.921 851, 293.971 851 C 295.022 851, 296.160 851.450, 296.500 852 C 296.840 852.550, 297.978 853, 299.029 853 C 300.079 853, 302.542 853.900, 304.500 855 C 306.458 856.100, 308.921 857, 309.971 857 C 311.022 857, 312.160 857.450, 312.500 858 C 312.840 858.550, 314.190 859, 315.500 859 C 316.810 859, 318.160 859.450, 318.500 860 C 318.840 860.550, 320.190 861, 321.500 861 C 322.810 861, 324.160 861.450, 324.500 862 C 324.840 862.550, 326.190 863, 327.500 863 C 328.810 863, 330.160 863.450, 330.500 864 C 330.840 864.550, 332.190 865, 333.500 865 C 334.810 865, 336.160 865.450, 336.500 866 C 336.840 866.550, 338.190 867, 339.500 867 C 340.810 867, 342.160 867.450, 342.500 868 C 342.840 868.550, 343.978 869, 345.029 869 C 346.079 869, 348.542 869.900, 350.500 871 C 352.458 872.100, 354.708 873, 355.500 873 C 356.292 873, 358.542 873.900, 360.500 875 C 362.458 876.100, 364.708 877, 365.500 877 C 366.292 877, 368.542 877.900, 370.500 879 C 372.458 880.100, 374.708 881, 375.500 881 C 376.292 881, 378.542 881.900, 380.500 883 C 382.458 884.100, 384.606 885, 385.273 885 C 386.920 885, 404.850 893.949, 405.585 895.138 C 405.908 895.660, 405.628 896.743, 404.964 897.544 C 404.048 898.647, 401.251 899, 393.437 899 C 387.636 899, 382.847 899.438, 382.500 900 C 382.159 900.552, 377.676 901, 372.500 901 C 367.324 901, 362.841 901.448, 362.500 902 C 362.160 902.550, 358.560 903, 354.500 903 C 350.440 903, 346.840 903.450, 346.500 904 C 346.160 904.550, 342.560 905, 338.500 905 C 334.440 905, 330.840 905.450, 330.500 906 C 330.160 906.550, 327.460 907, 324.500 907 C 321.540 907, 318.840 907.450, 318.500 908 C 318.160 908.550, 315.010 909, 311.500 909 C 307.990 909, 304.840 909.450, 304.500 910 C 304.160 910.550, 301.460 911, 298.500 911 C 295.540 911, 292.840 911.450, 292.500 912 C 292.160 912.550, 289.910 913, 287.500 913 C 285.090 913, 282.840 913.450, 282.500 914 C 282.160 914.550, 279.460 915, 276.500 915 C 273.540 915, 270.840 915.450, 270.500 916 C 270.160 916.550, 268.360 917, 266.500 917 C 264.640 917, 262.840 917.450, 262.500 918 C 262.160 918.550, 259.910 919, 257.500 919 C 255.090 919, 252.840 919.450, 252.500 920 C 252.160 920.550, 249.910 921, 247.500 921 C 245.090 921, 242.840 921.450, 242.500 922 C 242.160 922.550, 240.334 923, 238.441 923 C 236.303 923, 235 923.487, 235 924.286 C 235 928.124, 290.993 957.535, 319.940 968.903 C 381.481 993.069, 439.481 1004.193, 504 1004.205 C 570.656 1004.216, 628.308 993.245, 690.500 968.713 C 719.894 957.118, 774.998 928.124, 774.999 924.250 C 775 923.492, 773.645 923, 771.559 923 C 769.666 923, 767.840 922.550, 767.500 922 C 767.160 921.450, 764.910 921, 762.500 921 C 760.090 921, 757.840 920.550, 757.500 920 C 757.160 919.450, 755.360 919, 753.500 919 C 751.640 919, 749.840 918.550, 749.500 918 C 749.160 917.450, 746.910 917, 744.500 917 C 742.090 917, 739.840 916.550, 739.500 916 C 739.160 915.450, 736.460 915, 733.500 915 C 730.540 915, 727.840 914.550, 727.500 914 C 727.160 913.450, 724.910 913, 722.500 913 C 720.090 913, 717.840 912.550, 717.500 912 C 717.160 911.450, 714.460 911, 711.500 911 C 708.540 911, 705.840 910.550, 705.500 910 C 705.160 909.450, 702.460 909, 699.500 909 C 696.540 909, 693.840 908.550, 693.500 908 C 693.160 907.450, 690.010 907, 686.500 907 C 682.990 907, 679.840 906.550, 679.500 906 C 679.160 905.450, 675.560 905, 671.500 905 C 667.440 905, 663.840 904.550, 663.500 904 C 663.160 903.450, 659.560 903, 655.500 903 C 651.440 903, 647.840 902.550, 647.500 902 C 647.160 901.449, 642.697 901, 637.563 901 C 625.639 901, 624.730 900.190, 628.398 892.828 C 629.829 889.957, 631 886.822, 631 885.863 C 631 884.903, 631.450 883.840, 632 883.500 C 632.550 883.160, 633 881.810, 633 880.500 C 633 879.190, 633.450 877.840, 634 877.500 C 634.550 877.160, 635 875.810, 635 874.500 C 635 873.190, 635.450 871.840, 636 871.500 C 636.550 871.160, 637 869.810, 637 868.500 C 637 867.190, 637.450 865.840, 638 865.500 C 638.550 865.160, 639 863.360, 639 861.500 C 639 859.640, 639.450 857.840, 640 857.500 C 640.550 857.160, 641 855.360, 641 853.500 C 641 851.640, 641.450 849.840, 642 849.500 C 642.550 849.160, 643 847.360, 643 845.500 C 643 843.640, 643.450 841.840, 644 841.500 C 644.550 841.160, 645 838.910, 645 836.500 C 645 834.090, 645.450 831.840, 646 831.500 C 646.550 831.160, 647 828.460, 647 825.500 C 647 822.540, 647.450 819.840, 648 819.500 C 648.550 819.160, 649 816.010, 649 812.500 C 649 808.990, 649.450 805.840, 650 805.500 C 650.552 805.159, 651 800.676, 651 795.500 C 651 790.324, 651.448 785.841, 652 785.500 C 653.364 784.657, 653.364 723.343, 652 722.500 C 651.448 722.159, 651 717.676, 651 712.500 C 651 707.324, 650.552 702.841, 650 702.500 C 649.450 702.160, 649 699.010, 649 695.500 C 649 691.990, 648.550 688.840, 648 688.500 C 647.450 688.160, 647 685.460, 647 682.500 C 647 679.540, 646.550 676.840, 646 676.500 C 645.450 676.160, 645 673.910, 645 671.500 C 645 669.090, 644.550 666.840, 644 666.500 C 643.450 666.160, 643 664.360, 643 662.500 C 643 660.640, 642.550 658.840, 642 658.500 C 641.450 658.160, 641 656.360, 641 654.500 C 641 652.640, 640.550 650.840, 640 650.500 C 639.450 650.160, 639 648.360, 639 646.500 C 639 644.640, 638.550 642.840, 638 642.500 C 637.450 642.160, 637 640.810, 637 639.500 C 637 638.190, 636.550 636.840, 636 636.500 C 635.450 636.160, 635 634.810, 635 633.500 C 635 632.190, 634.550 630.840, 634 630.500 C 633.450 630.160, 633 628.810, 633 627.500 C 633 626.190, 632.550 624.840, 632 624.500 C 631.450 624.160, 631 623.022, 631 621.971 C 631 620.921, 630.100 618.458, 629 616.500 C 627.900 614.542, 627 612.324, 627 611.571 C 627 610.819, 625.651 607.638, 624.002 604.503 C 621.052 598.897, 620.893 597, 623.372 597 C 624.062 597, 625.919 595.650, 627.500 594 C 629.081 592.350, 630.862 591, 631.459 591 C 632.845 591, 649 574.806, 649 573.416 C 649 572.843, 650.350 571.081, 652 569.500 C 653.650 567.919, 655 566.090, 655 565.435 C 655 564.781, 655.653 563.703, 656.452 563.040 C 658.138 561.640, 663 552.207, 663 550.334 C 663 549.634, 663.900 547.458, 665 545.500 C 666.100 543.542, 667 540.629, 667 539.029 C 667 537.428, 667.450 535.840, 668 535.500 C 668.632 535.110, 669 523.509, 669 504 C 669 484.491, 668.632 472.890, 668 472.500 C 667.428 472.147, 667 467.009, 667 460.500 C 667 453.991, 666.572 448.853, 666 448.500 C 665.450 448.160, 665 444.110, 665 439.500 C 665 434.890, 664.550 430.840, 664 430.500 C 663.450 430.160, 663 426.560, 663 422.500 C 663 418.440, 662.550 414.840, 662 414.500 C 661.450 414.160, 661 411.010, 661 407.500 C 661 403.990, 660.550 400.840, 660 400.500 C 659.450 400.160, 659 397.460, 659 394.500 C 659 391.540, 658.550 388.840, 658 388.500 C 657.450 388.160, 657 385.910, 657 383.500 C 657 381.090, 656.550 378.840, 656 378.500 C 655.450 378.160, 655 375.910, 655 373.500 C 655 371.090, 654.550 368.840, 654 368.500 C 653.450 368.160, 653 365.910, 653 363.500 C 653 361.090, 652.550 358.840, 652 358.500 C 651.450 358.160, 651 356.360, 651 354.500 C 651 352.640, 650.550 350.840, 650 350.500 C 649.450 350.160, 649 348.360, 649 346.500 C 649 344.640, 648.550 342.840, 648 342.500 C 647.450 342.160, 647 340.810, 647 339.500 C 647 338.190, 646.550 336.840, 646 336.500 C 645.450 336.160, 645 334.810, 645 333.500 C 645 332.190, 644.550 330.840, 644 330.500 C 643.450 330.160, 643 329.022, 643 327.971 C 643 326.921, 642.100 324.458, 641 322.500 C 639.900 320.542, 639 318.366, 639 317.666 C 639 315.793, 634.138 306.360, 632.452 304.960 C 631.653 304.297, 631 303.232, 631 302.593 C 631 301.034, 621.199 291.738, 617.750 290.027 C 615.426 288.874, 614.574 288.874, 612.250 290.029 C 608.792 291.747, 601 299.037, 601 300.553 C 601 301.178, 600.100 302.505, 599 303.500 C 597.900 304.495, 597 305.845, 597 306.500 C 597 307.155, 596.100 308.505, 595 309.500 C 593.900 310.495, 593 311.860, 593 312.533 C 593 313.205, 592.303 314.334, 591.450 315.041 C 590.598 315.748, 589.046 318.205, 588 320.500 C 586.954 322.795, 585.402 325.252, 584.550 325.959 C 583.697 326.666, 583 327.810, 583 328.500 C 583 329.190, 582.303 330.334, 581.450 331.041 C 580.598 331.748, 579.046 334.205, 578 336.500 C 576.954 338.795, 575.402 341.252, 574.550 341.959 C 573.697 342.666, 573 343.795, 573 344.467 C 573 345.140, 572.100 346.505, 571 347.500 C 569.900 348.495, 569 349.845, 569 350.500 C 569 351.155, 568.100 352.505, 567 353.500 C 565.900 354.495, 565 355.845, 565 356.500 C 565 357.155, 564.100 358.505, 563 359.500 C 561.900 360.495, 561 361.831, 561 362.468 C 561 363.105, 559.650 364.919, 558 366.500 C 556.350 368.081, 555 369.869, 555 370.475 C 555 371.080, 552.750 373.791, 550 376.500 C 547.250 379.209, 545 381.913, 545 382.509 C 545 383.106, 543.194 385.358, 540.987 387.513 L 536.973 391.432 528.737 391.135 C 524.206 390.972, 520.072 390.425, 519.550 389.919 C 518.251 388.662, 495.281 388.736, 494.500 390 C 494.160 390.550, 490.880 391, 487.211 391 L 480.540 391 471.770 382.271 C 466.946 377.470, 463 373.054, 463 372.458 C 463 371.862, 461.650 370.081, 460 368.500 C 458.350 366.919, 457 365.105, 457 364.468 C 457 363.831, 456.100 362.495, 455 361.500 C 453.900 360.505, 453 359.155, 453 358.500 C 453 357.845, 452.100 356.495, 451 355.500 C 449.900 354.505, 449 353.155, 449 352.500 C 449 351.845, 448.100 350.495, 447 349.500 C 445.900 348.505, 445 347.140, 445 346.467 C 445 345.795, 444.303 344.666, 443.450 343.959 C 442.598 343.252, 441.046 340.795, 440 338.500 C 438.954 336.205, 437.402 333.748, 436.550 333.041 C 435.697 332.334, 435 331.190, 435 330.500 C 435 329.810, 434.303 328.666, 433.450 327.959 C 432.598 327.252, 431.046 324.795, 430 322.500 C 428.954 320.205, 427.402 317.748, 426.550 317.041 C 425.697 316.334, 425 315.205, 425 314.533 C 425 313.860, 424.100 312.495, 423 311.500 C 421.900 310.505, 421 309.155, 421 308.500 C 421 307.845, 420.100 306.495, 419 305.500 C 417.900 304.505, 417 303.182, 417 302.561 C 417 301.233, 407.503 292.050, 404.264 290.246 C 401.570 288.745, 400.236 288.790, 397.156 290.487 M 0.385 505 C 0.385 511.875, 0.545 514.688, 0.740 511.250 C 0.936 507.813, 0.936 502.188, 0.740 498.750 C 0.545 495.313, 0.385 498.125, 0.385 505" stroke="none" fill="#fbfbfb" fill-rule="evenodd"/></svg>